<svg width="234" height="200" viewBox="0 0 234 200" fill="none" xmlns="http://www.w3.org/2000/svg" xmlns:xlink="http://www.w3.org/1999/xlink">
<circle cx="99" cy="99.227" r="100" fill="#1A181B" fill-opacity="0.5"/>
<path d="M119,67.227C121.209,67.227 123,65.436 123,63.227C123,61.017 121.209,59.227 119,59.227L119,67.227ZM88.333,135.227C88.333,137.436 90.124,139.227 92.333,139.227C94.542,139.227 96.333,137.436 96.333,135.227L88.333,135.227ZM119,59.227L110.111,59.227L110.111,67.227L119,67.227L119,59.227ZM110.111,59.227C103.739,59.227 98.177,61.179 94.209,65.197C90.247,69.208 88.333,74.814 88.333,81.227L96.333,81.227C96.333,76.39 97.752,72.995 99.901,70.819C102.044,68.649 105.371,67.227 110.111,67.227L110.111,59.227ZM88.333,81.227L88.333,135.227L96.333,135.227L96.333,81.227L88.333,81.227Z" fill="#D7B56D"/>
<line x1="79" y1="95.227" x2="110.111" y2="95.227" stroke="#D7B56D" stroke-width="4" stroke-miterlimit="3.999327" stroke-linecap="round"/>
</svg>
