<svg width="236" height="200" viewBox="0 0 236 200" fill="none" xmlns="http://www.w3.org/2000/svg" xmlns:xlink="http://www.w3.org/1999/xlink">
<circle cx="100" cy="99.527" r="100" fill="#1A181B" fill-opacity="0.5"/>
<path d="M100,65.527L85.778,65.527L85.778,69.527L100,69.527L100,65.527ZM85.778,65.527C74.855,65.527 66,74.382 66,85.305L70,85.305C70,76.591 77.064,69.527 85.778,69.527L85.778,65.527ZM66,85.305L66,113.75L70,113.75L70,85.305L66,85.305ZM66,113.75C66,124.672 74.855,133.527 85.778,133.527L85.778,129.527C77.064,129.527 70,122.463 70,113.75L66,113.75ZM85.778,133.527L114.222,133.527L114.222,129.527L85.778,129.527L85.778,133.527ZM114.222,133.527C125.145,133.527 134,124.673 134,113.75L130,113.75C130,122.463 122.936,129.527 114.222,129.527L114.222,133.527ZM134,113.75L134,85.305L130,85.305L130,113.75L134,113.75ZM134,85.305C134,74.382 125.145,65.527 114.222,65.527L114.222,69.527C122.936,69.527 130,76.591 130,85.305L134,85.305ZM114.222,65.527L100,65.527L100,69.527L114.222,69.527L114.222,65.527Z" fill="#D7B56D"/>
<path d="M100,87.305C106.75,87.305 112.222,92.777 112.222,99.527L116.222,99.527C116.222,90.568 108.959,83.305 100,83.305L100,87.305ZM112.222,99.527C112.222,106.277 106.75,111.749 100,111.749L100,115.749C108.959,115.749 116.222,108.486 116.222,99.527L112.222,99.527ZM100,111.749C93.249,111.749 87.777,106.277 87.777,99.527L83.777,99.527C83.777,108.486 91.04,115.749 100,115.749L100,111.749ZM87.777,99.527C87.777,92.777 93.249,87.305 100,87.305L100,83.305C91.04,83.305 83.777,90.568 83.777,99.527L87.777,99.527Z" fill="#D7B56D"/>
<path d="M117.778,87.085C120.723,87.085 123.111,84.697 123.111,81.751C123.111,78.806 120.723,76.418 117.778,76.418C114.832,76.418 112.444,78.806 112.444,81.751C112.444,84.697 114.832,87.085 117.778,87.085Z" fill="#D7B56D"/>
</svg>
