<svg width="236" height="200" viewBox="0 0 236 200" fill="none" xmlns="http://www.w3.org/2000/svg" xmlns:xlink="http://www.w3.org/1999/xlink">
<circle cx="100" cy="99.227" r="100" fill="#1A181B" fill-opacity="0.5"/>
<path d="M100,65.227L85.778,65.227L85.778,69.227L100,69.227L100,65.227ZM85.778,65.227C74.855,65.227 66,74.081 66,85.004L70,85.004C70,76.291 77.064,69.227 85.778,69.227L85.778,65.227ZM66,85.004L66,113.449L70,113.449L70,85.004L66,85.004ZM66,113.449C66,124.372 74.855,133.227 85.778,133.227L85.778,129.227C77.064,129.227 70,122.163 70,113.449L66,113.449ZM85.778,133.227L114.222,133.227L114.222,129.227L85.778,129.227L85.778,133.227ZM114.222,133.227C125.145,133.227 134,124.372 134,113.449L130,113.449C130,122.163 122.936,129.227 114.222,129.227L114.222,133.227ZM134,113.449L134,85.004L130,85.004L130,113.449L134,113.449ZM134,85.004C134,74.081 125.145,65.227 114.222,65.227L114.222,69.227C122.936,69.227 130,76.291 130,85.004L134,85.004ZM114.222,65.227L100,65.227L100,69.227L114.222,69.227L114.222,65.227Z" fill="#D7B56D"/>
<path d="M100,87.004C106.75,87.004 112.222,92.476 112.222,99.226L116.222,99.226C116.222,90.267 108.959,83.004 100,83.004L100,87.004ZM112.222,99.226C112.222,105.976 106.75,111.448 100,111.448L100,115.448C108.959,115.448 116.222,108.186 116.222,99.226L112.222,99.226ZM100,111.448C93.249,111.448 87.777,105.976 87.777,99.226L83.777,99.226C83.777,108.185 91.04,115.448 100,115.448L100,111.448ZM87.777,99.226C87.777,92.476 93.249,87.004 100,87.004L100,83.004C91.04,83.004 83.777,90.267 83.777,99.226L87.777,99.226Z" fill="#D7B56D"/>
<path d="M117.778,86.782C120.723,86.782 123.111,84.394 123.111,81.449C123.111,78.503 120.723,76.115 117.778,76.115C114.832,76.115 112.444,78.503 112.444,81.449C112.444,84.394 114.832,86.782 117.778,86.782Z" fill="#D7B56D"/>
</svg>
