<svg width="98" height="96" viewBox="0 0 98 96" fill="none" xmlns="http://www.w3.org/2000/svg" xmlns:xlink="http://www.w3.org/1999/xlink">
<path d="M98,48C98,74.51 76.062,96 49,96C21.938,96 0,74.51 0,48C0,21.49 21.938,0 49,0C76.062,0 98,21.49 98,48Z" fill="#1A181B" fill-opacity="0.5"/>
<path d="M64,26C66.209,26 68,24.209 68,22C68,19.791 66.209,18 64,18L64,26ZM41.333,74C41.333,76.209 43.124,78 45.333,78C47.543,78 49.333,76.209 49.333,74L41.333,74ZM64,18L57.778,18L57.778,26L64,26L64,18ZM57.778,18C53.036,18 48.793,19.508 45.75,22.687C42.727,25.844 41.333,30.184 41.333,35L49.333,35C49.333,31.691 50.273,29.531 51.529,28.219C52.763,26.93 54.742,26 57.778,26L57.778,18ZM41.333,35L41.333,74L49.333,74L49.333,35L41.333,35Z" fill="#D7B56D"/>
<line x1="36" y1="44" x2="57.778" y2="44" stroke="#D7B56D" stroke-width="4" stroke-miterlimit="3.999327" stroke-linecap="round"/>
</svg>
