<svg width="48" height="48" viewBox="0 0 48 48" fill="none" xmlns="http://www.w3.org/2000/svg" xmlns:xlink="http://www.w3.org/1999/xlink">
<path d="M24,0L14.222,0L14.222,4L24,4L24,0ZM14.222,0C6.368,0 0,6.368 0,14.222L4,14.222C4,8.577 8.577,4 14.222,4L14.222,0ZM0,14.222L0,33.778L4,33.778L4,14.222L0,14.222ZM0,33.778C0,41.632 6.367,48 14.222,48L14.222,44C8.577,44 4,39.423 4,33.778L0,33.778ZM14.222,48L33.778,48L33.778,44L14.222,44L14.222,48ZM33.778,48C41.632,48 48,41.632 48,33.778L44,33.778C44,39.423 39.423,44 33.778,44L33.778,48ZM48,33.778L48,14.222L44,14.222L44,33.778L48,33.778ZM48,14.222C48,6.368 41.632,0 33.778,0L33.778,4C39.423,4 44,8.577 44,14.222L48,14.222ZM33.778,0L24,0L24,4L33.778,4L33.778,0Z" fill="#D7B56D"/>
<path d="M24,16.223C28.295,16.223 31.778,19.705 31.778,24L35.778,24C35.778,17.496 30.505,12.223 24,12.223L24,16.223ZM31.778,24C31.778,28.296 28.295,31.778 24,31.778L24,35.778C30.505,35.778 35.778,30.505 35.778,24L31.778,24ZM24,31.778C19.704,31.778 16.222,28.296 16.222,24L12.222,24C12.222,30.505 17.495,35.778 24,35.778L24,31.778ZM16.222,24C16.222,19.705 19.704,16.223 24,16.223L24,12.223C17.495,12.223 12.222,17.496 12.222,24L16.222,24Z" fill="#D7B56D"/>
<path d="M36.222,15.445C38.247,15.445 39.889,13.803 39.889,11.778C39.889,9.753 38.247,8.111 36.222,8.111C34.197,8.111 32.556,9.753 32.556,11.778C32.556,13.803 34.197,15.445 36.222,15.445Z" fill="#D7B56D"/>
</svg>
