<svg width="236" height="200" viewBox="0 0 236 200" fill="none" xmlns="http://www.w3.org/2000/svg" xmlns:xlink="http://www.w3.org/1999/xlink">
<circle cx="101" cy="99.227" r="100" fill="#1A181B" fill-opacity="0.5"/>
<path d="M121,67.227C123.209,67.227 125,65.436 125,63.227C125,61.017 123.209,59.227 121,59.227L121,67.227ZM90.333,135.227C90.333,137.436 92.124,139.227 94.333,139.227C96.543,139.227 98.333,137.436 98.333,135.227L90.333,135.227ZM121,59.227L112.111,59.227L112.111,67.227L121,67.227L121,59.227ZM112.111,59.227C105.739,59.227 100.178,61.179 96.21,65.197C92.248,69.208 90.333,74.814 90.333,81.227L98.333,81.227C98.333,76.39 99.752,72.995 101.902,70.819C104.045,68.649 107.372,67.227 112.111,67.227L112.111,59.227ZM90.333,81.227L90.333,135.227L98.333,135.227L98.333,81.227L90.333,81.227Z" fill="#D7B56D"/>
<line x1="81" y1="95.227" x2="112.111" y2="95.227" stroke="#D7B56D" stroke-width="4" stroke-miterlimit="3.999327" stroke-linecap="round"/>
</svg>
