<svg width="68" height="70" viewBox="0 0 68 70" fill="none" xmlns="http://www.w3.org/2000/svg" xmlns:xlink="http://www.w3.org/1999/xlink">
<path d="M34,0.566L19.778,0.566L19.778,4.566L34,4.566L34,0.566ZM19.778,0.566C8.855,0.566 0,9.421 0,20.344L4,20.344C4,11.63 11.064,4.566 19.778,4.566L19.778,0.566ZM0,20.344L0,48.789L4,48.789L4,20.344L0,20.344ZM0,48.789C0,59.711 8.855,68.566 19.778,68.566L19.778,64.566C11.064,64.566 4,57.502 4,48.789L0,48.789ZM19.778,68.566L48.222,68.566L48.222,64.566L19.778,64.566L19.778,68.566ZM48.222,68.566C59.145,68.566 68,59.712 68,48.789L64,48.789C64,57.502 56.936,64.566 48.222,64.566L48.222,68.566ZM68,48.789L68,20.344L64,20.344L64,48.789L68,48.789ZM68,20.344C68,9.421 59.145,0.566 48.222,0.566L48.222,4.566C56.936,4.566 64,11.63 64,20.344L68,20.344ZM48.222,0.566L34,0.566L34,4.566L48.222,4.566L48.222,0.566Z" fill="#D7B56D"/>
<path d="M34,22.344C40.75,22.344 46.222,27.816 46.222,34.566L50.222,34.566C50.222,25.607 42.959,18.344 34,18.344L34,22.344ZM46.222,34.566C46.222,41.316 40.75,46.788 34,46.788L34,50.788C42.959,50.788 50.222,43.525 50.222,34.566L46.222,34.566ZM34,46.788C27.249,46.788 21.777,41.316 21.777,34.566L17.777,34.566C17.777,43.525 25.04,50.788 34,50.788L34,46.788ZM21.777,34.566C21.777,27.816 27.249,22.344 34,22.344L34,18.344C25.04,18.344 17.777,25.607 17.777,34.566L21.777,34.566Z" fill="#D7B56D"/>
<path d="M51.778,22.122C54.723,22.122 57.111,19.734 57.111,16.788C57.111,13.843 54.723,11.455 51.778,11.455C48.832,11.455 46.444,13.843 46.444,16.788C46.444,19.734 48.832,22.122 51.778,22.122Z" fill="#D7B56D"/>
</svg>
