<svg width="236" height="200" viewBox="0 0 236 200" fill="none" xmlns="http://www.w3.org/2000/svg" xmlns:xlink="http://www.w3.org/1999/xlink">
<circle cx="100" cy="99.527" r="100" fill="#1A181B" fill-opacity="0.5"/>
<path d="M99,75.527C107.289,75.527 113.371,75.529 117.904,75.926C122.483,76.327 125.064,77.108 126.637,78.348C128.109,79.508 129.019,81.334 129.504,84.775C129.995,88.259 130,92.966 130,99.527L134,99.527C134,93.089 134.005,88.046 133.465,84.217C132.919,80.346 131.766,77.296 129.113,75.206C126.561,73.196 122.954,72.353 118.253,71.941C113.504,71.525 107.211,71.527 99,71.527L99,75.527ZM130,99.527C130,106.089 129.995,110.796 129.504,114.279C129.019,117.721 128.109,119.547 126.637,120.706C125.064,121.946 122.483,122.728 117.904,123.129C113.371,123.526 107.289,123.527 99,123.527L99,127.527C107.211,127.527 113.504,127.529 118.253,127.114C122.954,126.702 126.561,125.859 129.113,123.848C131.766,121.758 132.919,118.709 133.465,114.838C134.005,111.009 134,105.966 134,99.527L130,99.527ZM99,123.527C90.711,123.527 84.629,123.526 80.096,123.129C75.517,122.728 72.936,121.946 71.363,120.706C69.891,119.547 68.981,117.721 68.496,114.279C68.005,110.796 68,106.089 68,99.527L64,99.527C64,105.966 63.995,111.009 64.535,114.838C65.081,118.709 66.234,121.758 68.887,123.848C71.439,125.859 75.046,126.702 79.747,127.114C84.496,127.529 90.789,127.527 99,127.527L99,123.527ZM68,99.527C68,92.966 68.005,88.259 68.496,84.775C68.981,81.334 69.891,79.508 71.363,78.348C72.936,77.108 75.517,76.327 80.096,75.926C84.629,75.529 90.711,75.527 99,75.527L99,71.527C90.789,71.527 84.496,71.525 79.747,71.941C75.046,72.353 71.439,73.196 68.887,75.206C66.234,77.296 65.081,80.346 64.535,84.217C63.995,88.046 64,93.089 64,99.527L68,99.527Z" fill="#D7B56D"/>
</svg>
