<svg width="70" height="58" viewBox="0 0 70 58" fill="none" xmlns="http://www.w3.org/2000/svg" xmlns:xlink="http://www.w3.org/1999/xlink">
<path d="M35,4.566C43.289,4.566 49.371,4.568 53.904,4.965C58.483,5.366 61.064,6.148 62.637,7.387C64.109,8.547 65.019,10.373 65.504,13.814C65.995,17.298 66,22.005 66,28.566L70,28.566C70,22.128 70.005,17.085 69.465,13.256C68.919,9.385 67.766,6.336 65.113,4.245C62.561,2.235 58.954,1.392 54.253,0.98C49.504,0.565 43.211,0.566 35,0.566L35,4.566ZM66,28.566C66,35.128 65.995,39.835 65.504,43.318C65.019,46.76 64.109,48.586 62.637,49.745C61.064,50.985 58.483,51.767 53.904,52.168C49.371,52.565 43.289,52.566 35,52.566L35,56.566C43.211,56.566 49.504,56.568 54.253,56.153C58.954,55.741 62.561,54.898 65.113,52.887C67.766,50.797 68.919,47.748 69.465,43.877C70.005,40.048 70,35.005 70,28.566L66,28.566ZM35,52.566C26.711,52.566 20.629,52.565 16.096,52.168C11.517,51.767 8.936,50.985 7.363,49.745C5.891,48.586 4.981,46.76 4.496,43.318C4.005,39.835 4,35.128 4,28.566L0,28.566C0,35.005 -0.005,40.048 0.535,43.877C1.081,47.748 2.234,50.797 4.887,52.887C7.439,54.898 11.046,55.741 15.747,56.153C20.496,56.568 26.789,56.566 35,56.566L35,52.566ZM4,28.566C4,22.005 4.005,17.298 4.496,13.814C4.981,10.373 5.891,8.547 7.363,7.387C8.936,6.148 11.517,5.366 16.096,4.965C20.629,4.568 26.711,4.566 35,4.566L35,0.566C26.789,0.566 20.496,0.565 15.747,0.98C11.046,1.392 7.439,2.235 4.887,4.245C2.234,6.336 1.081,9.385 0.535,13.256C-0.005,17.085 0,22.128 0,28.566L4,28.566Z" fill="#D7B56D"/>
</svg>
