<svg width="236" height="200" viewBox="0 0 236 200" fill="none" xmlns="http://www.w3.org/2000/svg" xmlns:xlink="http://www.w3.org/1999/xlink">
<circle cx="100" cy="99.225" r="100" fill="#1A181B" fill-opacity="0.5"/>
<path d="M99,75.225C107.289,75.225 113.371,75.226 117.904,75.623C122.483,76.024 125.064,76.806 126.637,78.046C128.109,79.205 129.019,81.031 129.504,84.473C129.995,87.956 130,92.663 130,99.225L134,99.225C134,92.786 134.005,87.743 133.465,83.914C132.919,80.043 131.766,76.994 129.113,74.904C126.561,72.893 122.954,72.05 118.253,71.638C113.504,71.223 107.211,71.225 99,71.225L99,75.225ZM130,99.225C130,105.786 129.995,110.493 129.504,113.977C129.019,117.418 128.109,119.244 126.637,120.404C125.064,121.643 122.483,122.425 117.904,122.826C113.371,123.223 107.289,123.225 99,123.225L99,127.225C107.211,127.225 113.504,127.226 118.253,126.811C122.954,126.399 126.561,125.556 129.113,123.546C131.766,121.455 132.919,118.406 133.465,114.535C134.005,110.706 134,105.663 134,99.225L130,99.225ZM99,123.225C90.711,123.225 84.629,123.223 80.096,122.826C75.517,122.425 72.936,121.643 71.363,120.404C69.891,119.244 68.981,117.418 68.496,113.977C68.005,110.493 68,105.786 68,99.225L64,99.225C64,105.663 63.995,110.706 64.535,114.535C65.081,118.406 66.234,121.455 68.887,123.546C71.439,125.556 75.046,126.399 79.747,126.811C84.496,127.226 90.789,127.225 99,127.225L99,123.225ZM68,99.225C68,92.663 68.005,87.956 68.496,84.473C68.981,81.031 69.891,79.205 71.363,78.046C72.936,76.806 75.517,76.024 80.096,75.623C84.629,75.226 90.711,75.225 99,75.225L99,71.225C90.789,71.225 84.496,71.223 79.747,71.638C75.046,72.05 71.439,72.893 68.887,74.904C66.234,76.994 65.081,80.043 64.535,83.914C63.995,87.743 64,92.786 64,99.225L68,99.225Z" fill="#D7B56D"/>
</svg>
