<svg width="52" height="42" viewBox="0 0 52 42" fill="none" xmlns="http://www.w3.org/2000/svg" xmlns:xlink="http://www.w3.org/1999/xlink">
<path d="M26,4.563C31.788,4.563 35.997,4.564 39.124,4.836C42.298,5.112 43.943,5.645 44.892,6.388C45.737,7.049 46.332,8.124 46.66,10.437C46.995,12.795 47,16 47,20.563L51,20.563C51,16.125 51.005,12.58 50.621,9.875C50.23,7.126 49.388,4.826 47.358,3.237C45.432,1.73 42.764,1.138 39.47,0.851C36.128,0.561 31.712,0.563 26,0.563L26,4.563ZM47,20.563C47,25.124 46.995,28.33 46.66,30.688C46.332,33.001 45.737,34.076 44.892,34.738C43.943,35.48 42.298,36.013 39.124,36.289C35.997,36.561 31.788,36.563 26,36.563L26,40.563C31.712,40.563 36.128,40.564 39.47,40.274C42.764,39.987 45.432,39.395 47.358,37.887C49.388,36.299 50.23,33.999 50.621,31.25C51.005,28.545 51,25.001 51,20.563L47,20.563ZM26,36.563C20.212,36.563 16.003,36.561 12.876,36.289C9.702,36.013 8.057,35.48 7.108,34.738C6.263,34.076 5.668,33.001 5.34,30.688C5.005,28.33 5,25.124 5,20.563L1,20.563C1,25.001 0.995,28.545 1.379,31.25C1.77,33.999 2.612,36.299 4.642,37.887C6.568,39.395 9.236,39.987 12.53,40.274C15.872,40.564 20.288,40.563 26,40.563L26,36.563ZM5,20.563C5,16 5.005,12.795 5.34,10.437C5.668,8.124 6.263,7.049 7.108,6.388C8.057,5.645 9.702,5.112 12.876,4.836C16.003,4.564 20.212,4.563 26,4.563L26,0.563C20.288,0.563 15.872,0.561 12.53,0.851C9.236,1.138 6.568,1.73 4.642,3.237C2.612,4.826 1.77,7.126 1.379,9.875C0.995,12.58 1,16.125 1,20.563L5,20.563Z" fill="#D7B56D"/>
</svg>
