<svg width="236" height="200" viewBox="0 0 236 200" fill="none" xmlns="http://www.w3.org/2000/svg" xmlns:xlink="http://www.w3.org/1999/xlink">
<circle cx="101" cy="99.527" r="100" fill="#1A181B" fill-opacity="0.5"/>
<path d="M121,67.527C123.209,67.527 125,65.736 125,63.527C125,61.318 123.209,59.527 121,59.527L121,67.527ZM90.333,135.527C90.333,137.737 92.124,139.527 94.333,139.527C96.543,139.527 98.333,137.737 98.333,135.527L90.333,135.527ZM121,59.527L112.111,59.527L112.111,67.527L121,67.527L121,59.527ZM112.111,59.527C105.739,59.527 100.178,61.48 96.21,65.498C92.248,69.509 90.333,75.114 90.333,81.527L98.333,81.527C98.333,76.69 99.752,73.295 101.902,71.119C104.045,68.95 107.372,67.527 112.111,67.527L112.111,59.527ZM90.333,81.527L90.333,135.527L98.333,135.527L98.333,81.527L90.333,81.527Z" fill="#D7B56D"/>
<line x1="81" y1="95.527" x2="112.111" y2="95.527" stroke="#D7B56D" stroke-width="4" stroke-miterlimit="3.999327" stroke-linecap="round"/>
</svg>
