<svg width="236" height="200" viewBox="0 0 236 200" fill="none" xmlns="http://www.w3.org/2000/svg" xmlns:xlink="http://www.w3.org/1999/xlink">
<circle cx="100" cy="99.225" r="100" fill="#1A181B" fill-opacity="0.5"/>
<path d="M100,65.225L85.778,65.225L85.778,69.225L100,69.225L100,65.225ZM85.778,65.225C74.855,65.225 66,74.079 66,85.002L70,85.002C70,76.289 77.064,69.225 85.778,69.225L85.778,65.225ZM66,85.002L66,113.447L70,113.447L70,85.002L66,85.002ZM66,113.447C66,124.37 74.855,133.225 85.778,133.225L85.778,129.225C77.064,129.225 70,122.161 70,113.447L66,113.447ZM85.778,133.225L114.222,133.225L114.222,129.225L85.778,129.225L85.778,133.225ZM114.222,133.225C125.145,133.225 134,124.37 134,113.447L130,113.447C130,122.161 122.936,129.225 114.222,129.225L114.222,133.225ZM134,113.447L134,85.002L130,85.002L130,113.447L134,113.447ZM134,85.002C134,74.079 125.145,65.225 114.222,65.225L114.222,69.225C122.936,69.225 130,76.289 130,85.002L134,85.002ZM114.222,65.225L100,65.225L100,69.225L114.222,69.225L114.222,65.225Z" fill="#D7B56D"/>
<path d="M100,87.002C106.75,87.002 112.222,92.474 112.222,99.224L116.222,99.224C116.222,90.265 108.959,83.002 100,83.002L100,87.002ZM112.222,99.224C112.222,105.974 106.75,111.446 100,111.446L100,115.446C108.959,115.446 116.222,108.184 116.222,99.224L112.222,99.224ZM100,111.446C93.25,111.446 87.778,105.974 87.778,99.224L83.778,99.224C83.778,108.183 91.041,115.446 100,115.446L100,111.446ZM87.778,99.224C87.778,92.474 93.25,87.002 100,87.002L100,83.002C91.041,83.002 83.778,90.265 83.778,99.224L87.778,99.224Z" fill="#D7B56D"/>
<path d="M117.778,86.78C120.723,86.78 123.111,84.392 123.111,81.447C123.111,78.501 120.723,76.113 117.778,76.113C114.832,76.113 112.444,78.501 112.444,81.447C112.444,84.392 114.832,86.78 117.778,86.78Z" fill="#D7B56D"/>
</svg>
