<svg width="50" height="40" viewBox="0 0 50 40" fill="none" xmlns="http://www.w3.org/2000/svg" xmlns:xlink="http://www.w3.org/1999/xlink">
<path d="M25,4C30.788,4 34.997,4.002 38.124,4.274C41.298,4.55 42.943,5.082 43.892,5.825C44.737,6.486 45.332,7.561 45.66,9.875C45.995,12.232 46,15.438 46,20L50,20C50,15.562 50.005,12.018 49.621,9.313C49.23,6.564 48.388,4.264 46.358,2.675C44.432,1.168 41.764,0.575 38.47,0.289C35.128,-0.002 30.712,0 25,0L25,4ZM46,20C46,24.562 45.995,27.768 45.66,30.125C45.332,32.439 44.737,33.514 43.892,34.175C42.943,34.918 41.298,35.45 38.124,35.726C34.997,35.998 30.788,36 25,36L25,40C30.712,40 35.128,40.002 38.47,39.711C41.764,39.425 44.432,38.832 46.358,37.325C48.388,35.736 49.23,33.436 49.621,30.687C50.005,27.982 50,24.438 50,20L46,20ZM25,36C19.212,36 15.003,35.998 11.876,35.726C8.702,35.45 7.057,34.918 6.108,34.175C5.263,33.514 4.668,32.439 4.34,30.125C4.005,27.768 4,24.562 4,20L0,20C0,24.438 -0.005,27.982 0.379,30.687C0.77,33.436 1.612,35.736 3.642,37.325C5.568,38.832 8.236,39.425 11.53,39.711C14.872,40.002 19.288,40 25,40L25,36ZM4,20C4,15.438 4.005,12.232 4.34,9.875C4.668,7.561 5.263,6.486 6.108,5.825C7.057,5.082 8.702,4.55 11.876,4.274C15.003,4.002 19.212,4 25,4L25,0C19.288,0 14.872,-0.002 11.53,0.289C8.236,0.575 5.568,1.168 3.642,2.675C1.612,4.264 0.77,6.564 0.379,9.313C-0.005,12.018 0,15.562 0,20L4,20Z" fill="#D7B56D"/>
</svg>
