<svg width="236" height="200" viewBox="0 0 236 200" fill="none" xmlns="http://www.w3.org/2000/svg" xmlns:xlink="http://www.w3.org/1999/xlink">
<circle cx="101" cy="99.225" r="100" fill="#1A181B" fill-opacity="0.5"/>
<path d="M121,67.225C123.209,67.225 125,65.434 125,63.225C125,61.015 123.209,59.225 121,59.225L121,67.225ZM90.333,135.225C90.333,137.434 92.124,139.225 94.333,139.225C96.542,139.225 98.333,137.434 98.333,135.225L90.333,135.225ZM121,59.225L112.111,59.225L112.111,67.225L121,67.225L121,59.225ZM112.111,59.225C105.739,59.225 100.177,61.177 96.209,65.195C92.247,69.207 90.333,74.812 90.333,81.225L98.333,81.225C98.333,76.388 99.752,72.993 101.901,70.817C104.044,68.647 107.371,67.225 112.111,67.225L112.111,59.225ZM90.333,81.225L90.333,135.225L98.333,135.225L98.333,81.225L90.333,81.225Z" fill="#D7B56D"/>
<line x1="81" y1="95.225" x2="112.111" y2="95.225" stroke="#D7B56D" stroke-width="4" stroke-miterlimit="3.999327" stroke-linecap="round"/>
</svg>
