<svg width="100" height="98" viewBox="0 0 100 98" fill="none" xmlns="http://www.w3.org/2000/svg" xmlns:xlink="http://www.w3.org/1999/xlink">
<path d="M99,48.563C99,75.072 77.062,96.563 50,96.563C22.938,96.563 1,75.072 1,48.563C1,22.053 22.938,0.563 50,0.563C77.062,0.563 99,22.053 99,48.563Z" fill="#1A181B" fill-opacity="0.5"/>
<path d="M65,26.563C67.209,26.563 69,24.772 69,22.563C69,20.353 67.209,18.563 65,18.563L65,26.563ZM42.333,74.563C42.333,76.772 44.124,78.563 46.333,78.563C48.542,78.563 50.333,76.772 50.333,74.563L42.333,74.563ZM65,18.563L58.777,18.563L58.777,26.563L65,26.563L65,18.563ZM58.777,18.563C54.036,18.563 49.793,20.07 46.749,23.25C43.727,26.407 42.333,30.746 42.333,35.563L50.333,35.563C50.333,32.254 51.273,30.093 52.528,28.782C53.762,27.492 55.742,26.563 58.777,26.563L58.777,18.563ZM42.333,35.563L42.333,74.563L50.333,74.563L50.333,35.563L42.333,35.563Z" fill="#D7B56D"/>
<line x1="37" y1="44.563" x2="58.778" y2="44.563" stroke="#D7B56D" stroke-width="4" stroke-miterlimit="3.999327" stroke-linecap="round"/>
</svg>
