<svg width="236" height="200" viewBox="0 0 236 200" fill="none" xmlns="http://www.w3.org/2000/svg" xmlns:xlink="http://www.w3.org/1999/xlink">
<circle cx="100" cy="99.227" r="100" fill="#1A181B" fill-opacity="0.5"/>
<path d="M99,75.227C107.289,75.227 113.371,75.228 117.904,75.625C122.483,76.026 125.064,76.808 126.637,78.048C128.109,79.207 129.019,81.033 129.504,84.475C129.995,87.958 130,92.665 130,99.227L134,99.227C134,92.788 134.005,87.745 133.465,83.916C132.919,80.045 131.766,76.996 129.113,74.906C126.561,72.895 122.954,72.052 118.253,71.64C113.504,71.225 107.211,71.227 99,71.227L99,75.227ZM130,99.227C130,105.788 129.995,110.495 129.504,113.979C129.019,117.42 128.109,119.246 126.637,120.406C125.064,121.645 122.483,122.427 117.904,122.828C113.371,123.225 107.289,123.227 99,123.227L99,127.227C107.211,127.227 113.504,127.228 118.253,126.813C122.954,126.401 126.561,125.558 129.113,123.548C131.766,121.457 132.919,118.408 133.465,114.537C134.005,110.708 134,105.665 134,99.227L130,99.227ZM99,123.227C90.711,123.227 84.629,123.225 80.096,122.828C75.517,122.427 72.936,121.645 71.363,120.406C69.891,119.246 68.981,117.42 68.496,113.979C68.005,110.495 68,105.788 68,99.227L64,99.227C64,105.665 63.995,110.708 64.535,114.537C65.081,118.408 66.234,121.457 68.887,123.548C71.439,125.558 75.046,126.401 79.747,126.813C84.496,127.228 90.789,127.227 99,127.227L99,123.227ZM68,99.227C68,92.665 68.005,87.958 68.496,84.475C68.981,81.033 69.891,79.207 71.363,78.048C72.936,76.808 75.517,76.026 80.096,75.625C84.629,75.228 90.711,75.227 99,75.227L99,71.227C90.789,71.227 84.496,71.225 79.747,71.64C75.046,72.052 71.439,72.895 68.887,74.906C66.234,76.996 65.081,80.045 64.535,83.916C63.995,87.745 64,92.788 64,99.227L68,99.227Z" fill="#D7B56D"/>
</svg>
