<svg width="234" height="200" viewBox="0 0 234 200" fill="none" xmlns="http://www.w3.org/2000/svg" xmlns:xlink="http://www.w3.org/1999/xlink">
<circle cx="99" cy="99.225" r="100" fill="#1A181B" fill-opacity="0.5"/>
<path d="M119,67.225C121.209,67.225 123,65.434 123,63.225C123,61.015 121.209,59.225 119,59.225L119,67.225ZM88.333,135.225C88.333,137.434 90.124,139.225 92.333,139.225C94.543,139.225 96.333,137.434 96.333,135.225L88.333,135.225ZM119,59.225L110.111,59.225L110.111,67.225L119,67.225L119,59.225ZM110.111,59.225C103.739,59.225 98.178,61.177 94.21,65.195C90.248,69.207 88.333,74.812 88.333,81.225L96.333,81.225C96.333,76.388 97.752,72.993 99.902,70.817C102.045,68.647 105.372,67.225 110.111,67.225L110.111,59.225ZM88.333,81.225L88.333,135.225L96.333,135.225L96.333,81.225L88.333,81.225Z" fill="#D7B56D"/>
<line x1="79" y1="95.225" x2="110.111" y2="95.225" stroke="#D7B56D" stroke-width="4" stroke-miterlimit="3.999327" stroke-linecap="round"/>
</svg>
