<svg width="50" height="50" viewBox="0 0 50 50" fill="none" xmlns="http://www.w3.org/2000/svg" xmlns:xlink="http://www.w3.org/1999/xlink">
<path d="M25,0.563L15.222,0.563L15.222,4.563L25,4.563L25,0.563ZM15.222,0.563C7.368,0.563 1,6.93 1,14.785L5,14.785C5,9.139 9.577,4.563 15.222,4.563L15.222,0.563ZM1,14.785L1,34.34L5,34.34L5,14.785L1,14.785ZM1,34.34C1,42.195 7.368,48.563 15.222,48.563L15.222,44.563C9.577,44.563 5,39.986 5,34.34L1,34.34ZM15.222,48.563L34.778,48.563L34.778,44.563L15.222,44.563L15.222,48.563ZM34.778,48.563C42.632,48.563 49,42.195 49,34.34L45,34.34C45,39.986 40.423,44.563 34.778,44.563L34.778,48.563ZM49,34.34L49,14.785L45,14.785L45,34.34L49,34.34ZM49,14.785C49,6.93 42.632,0.563 34.778,0.563L34.778,4.563C40.423,4.563 45,9.139 45,14.785L49,14.785ZM34.778,0.563L25,0.563L25,4.563L34.778,4.563L34.778,0.563Z" fill="#D7B56D"/>
<path d="M25,16.785C29.296,16.785 32.778,20.267 32.778,24.563L36.778,24.563C36.778,18.058 31.505,12.785 25,12.785L25,16.785ZM32.778,24.563C32.778,28.858 29.296,32.341 25,32.341L25,36.341C31.505,36.341 36.778,31.068 36.778,24.563L32.778,24.563ZM25,32.341C20.705,32.341 17.223,28.858 17.223,24.563L13.223,24.563C13.223,31.068 18.496,36.341 25,36.341L25,32.341ZM17.223,24.563C17.223,20.267 20.705,16.785 25,16.785L25,12.785C18.496,12.785 13.223,18.058 13.223,24.563L17.223,24.563Z" fill="#D7B56D"/>
<path d="M37.222,16.005C39.247,16.005 40.889,14.364 40.889,12.339C40.889,10.313 39.247,8.672 37.222,8.672C35.197,8.672 33.556,10.313 33.556,12.339C33.556,14.364 35.197,16.005 37.222,16.005Z" fill="#D7B56D"/>
</svg>
