<svg width="2400" height="1802" viewBox="0 0 2400 1802" fill="none" xmlns="http://www.w3.org/2000/svg" xmlns:xlink="http://www.w3.org/1999/xlink">
<path d="M2398,2L2399,2L2399,1L2398,1L2398,2ZM2398,1800L2398,1801L2399,1801L2399,1800L2398,1800ZM2,1800L1,1800L1,1801L2,1801L2,1800ZM2,2L2,1L1,1L1,2L2,2ZM38,3L2370,3L2370,1L38,1L38,3ZM2370,3L2398,3L2398,1L2370,1L2370,3ZM2397,2L2397,1800L2399,1800L2399,2L2397,2ZM2398,1799L2,1799L2,1801L2398,1801L2398,1799ZM3,1800L3,2L1,2L1,1800L3,1800ZM2,3L38,3L38,1L2,1L2,3Z" fill="#000000"/>
</svg>
